<svg xmlns="http://www.w3.org/2000/svg" viewBox="0 0 16 16" focusable="false"><style>.icon-canvas-transparent{opacity:0;fill:#f6f6f6}.icon-vs-out{fill:#f6f6f6}.icon-vs-fg{fill:#f0eff1}.icon-vs-blue{fill:#1ba1e2}.icon-vs-action-blue{fill:#00539c}</style><path class="icon-canvas-transparent" d="M16 16H0V0h16v16z" id="canvas"/><path class="icon-vs-out" d="M11 4a8.42 8.42 0 0 0-1.76.188l.674-.669L6.416 0h-4.82l1.988 2H3.5C1.57 2 0 3.57 0 5.5S1.57 9 3.5 9H5V7h1v6c0 1.711 2.149 3 5 3s5-1.289 5-3V7c0-1.711-2.149-3-5-3zM3.006 5.578A.503.503 0 0 1 3.5 5h.087l-.581.578z" id="outline"/><path class="icon-vs-blue" d="M11 5c-2.209 0-4 .896-4 2v6c0 1.104 1.791 2 4 2s4-.896 4-2V7c0-1.104-1.791-2-4-2zm0 3.325c-1.999 0-3.325-.798-3.325-1.325S9.001 5.675 11 5.675s3.325.798 3.325 1.325S12.999 8.325 11 8.325z" id="iconBg"/><path class="icon-vs-fg" d="M14.325 7c0 .527-1.326 1.325-3.325 1.325S7.675 7.527 7.675 7 9.001 5.675 11 5.675s3.325.798 3.325 1.325z" id="iconFg"/><path class="icon-vs-action-blue" d="M8.5 3.515L6 6H4l2.013-2H3.5a1.501 1.501 0 0 0 0 3H4v1h-.5a2.5 2.5 0 1 1 0-5h2.488L4 1h2l2.5 2.515z" id="colorAction"/></svg>